<svg id="Layer_1" data-name="Layer 1" xmlns="http://www.w3.org/2000/svg" xmlns:xlink="http://www.w3.org/1999/xlink" viewBox="0 0 604.11 582.06"><defs><style>.cls-1,.cls-10,.cls-11,.cls-12,.cls-13,.cls-14,.cls-15,.cls-16,.cls-17,.cls-18,.cls-19,.cls-2,.cls-20,.cls-3,.cls-4,.cls-5,.cls-6,.cls-7,.cls-8,.cls-9{fill-rule:evenodd;}.cls-1{fill:url(#GradientFill_1);}.cls-2{fill:#192015;}.cls-3{fill:#21301b;}.cls-4{fill:#65b32e;}.cls-5{fill:url(#GradientFill_2);}.cls-6{fill:url(#GradientFill_2-2);}.cls-7{fill:url(#GradientFill_2-3);}.cls-8{fill:url(#GradientFill_2-4);}.cls-9{fill:url(#GradientFill_2-5);}.cls-10{fill:#2f1916;}.cls-11{fill:#87172e;}.cls-12{fill:#24211f;opacity:0.45;}.cls-13{fill:#eda500;}.cls-14{fill:#da8a0b;}.cls-15{fill:#00443d;}.cls-16{fill:#339891;}.cls-18{fill:#a11915;}.cls-19{fill:#ea560d;}.cls-20{fill:url(#GradientFill_3);}</style><radialGradient id="GradientFill_1" cx="306.76" cy="381.96" r="246.63" gradientTransform="matrix(0.78, -0.62, 0.53, 0.67, -137.15, 317.94)" gradientUnits="userSpaceOnUse"><stop offset="0" stop-color="#331a15"/><stop offset="1" stop-color="#12100d"/></radialGradient><linearGradient id="GradientFill_2" x1="104.76" y1="452.5" x2="118.35" y2="522.38" gradientUnits="userSpaceOnUse"><stop offset="0" stop-color="#fbe800"/><stop offset="1" stop-color="#70b62c"/></linearGradient><linearGradient id="GradientFill_2-2" x1="380.3" y1="495.68" x2="389.13" y2="554.66" xlink:href="#GradientFill_2"/><linearGradient id="GradientFill_2-3" x1="470.51" y1="467.89" x2="479.55" y2="526.61" xlink:href="#GradientFill_2"/><linearGradient id="GradientFill_2-4" x1="174.79" y1="483.23" x2="182.81" y2="545.33" xlink:href="#GradientFill_2"/><linearGradient id="GradientFill_2-5" x1="279.73" y1="496.24" x2="287.59" y2="557.28" xlink:href="#GradientFill_2"/><linearGradient id="GradientFill_3" x1="301.75" y1="425.55" x2="289.58" y2="264.45" gradientUnits="userSpaceOnUse"><stop offset="0" stop-color="#e30613"/><stop offset="1" stop-color="#fbe800"/></linearGradient></defs><path class="cls-1" d="M454.74,303.8c5-5.39,9.42-10.18,14.23-15.33,8-8.56,30-26.1,45.35-12.28,12.23,11,14,28.37,19.26,47.29.81-2,2.14-195.08.5-208.37-3.83-1-164.15-1.28-176.25-.18,12.58,4.07,32.59,6.21,36.05,28.48,2.76,17.79-7.59,38.33-20.48,56.75-1,0-2.06.09-3.26.1-6.82.05-11.89.47-18.09,2.6l-6.29,2.63c-3.34,1.56-7.56,3.86-9.65,6.65L344,200.2c4.86-5.26,3.22-5.07.74-8.06l-10,5.51c-.65.44-1.05.66-1.46.94a66.17,66.17,0,0,0-14.79,14.76c-.08.11-.27.4-.33.51l-3.3,4.89-.14.26-.13.25-.13.25-.13.25-5.71,12.32c-.1.26-.42.89-.43.91l-.24,1.77c-1.69,2.11-1.53-6-1.59-6.94-.17-2.22.06-9.1-4.69-7.27-1.46.56-1.09.16-1.83,1.86-.62,1.42,0,.72-.64,2.59s-2,2.94-2,4.77a3.91,3.91,0,0,1-.35,2.39c-.69,2.11-.32,3-1.17,5.1-.57,1.39,0-.15-.57,1.22l-.82,2-.81-2c-.52-1.37,0,.17-.57-1.22-.85-2.11-.48-3-1.17-5.1a3.84,3.84,0,0,1-.35-2.39c.06-1.83-1.4-3-2-4.77s0-1.17-.64-2.59c-.74-1.7-.37-1.3-1.83-1.86-4.75-1.83-4.53,5-4.69,7.27-.06.91.1,9.05-1.59,6.94l-.24-1.77s-.33-.65-.43-.91q-2.87-6.15-5.71-12.32a2,2,0,0,1-.13-.25l-.13-.25-.13-.25-.15-.26-3.29-4.89-.33-.51a66.17,66.17,0,0,0-14.79-14.76c-.41-.28-.81-.5-1.47-.94l-10-5.51c-2.48,3-4.12,2.8.73,8.06l7.86,11.94c-2.09-2.79-6.31-5.09-9.65-6.65l-6.29-2.63c-6.2-2.13-11.27-2.55-18.09-2.6-.86,0-1.67,0-2.41-.08-12.9-18.43-23.26-39-20.5-56.77,3.46-22.27,23.47-24.41,36.05-28.48-12.1-1.1-172.42-.85-176.25.18-1.64,13.29-.31,206.41.5,208.37,5.24-18.92,7-36.3,19.26-47.29,15.37-13.82,37.35,3.72,45.35,12.28,4.61,4.94,8.84,9.54,13.61,14.67l-1.58,4.93c-1,2.26-.76,3-1.54,5.75-2.58,9.07-2.38,12.9-3.12,21.92a136.2,136.2,0,0,0,.54,24.13l.93,10c.05,2.13-.24.76.28,2.77q2.15,13,4.28,26c.55,3.95,2.44,8.43,2.05,12.46,0,1.6,0,3.2,0,4.8a46.58,46.58,0,0,0,2.46,12.78s.08.27.09.22,0,.14.08.21l-1-.07a2.74,2.74,0,0,1-.28,0c-6.87-1.06-16.76.07-23.54,0l-43.51,3.79-.3.08-13.84,2-.83.24a9.72,9.72,0,0,1-1.79.3c-1.14.15-2.19.26-2.55.33-1.67.31.26,0-1.44.38l-31.51,6.12a34.84,34.84,0,0,1-6.45,1.1h0s-3.94,2.45-3.92,4c.45.2.12.39.15.44a3.86,3.86,0,0,1,.34.58,5,5,0,0,0,4.65,2.21l25.27-.74a47.29,47.29,0,0,1-4.71,1.45c-1.09.32-1,.3-2.15.68l-2.54,1c-1,.45.06.06-.84.43l-6.09,2.17c-7.65,2.74-11.36,5.81-17.21,9.86l-1,.83-.19.17-.19.17-.39.33-1.07,1.09c-1.56,1.85-3.13,3.31-4.58,5a25,25,0,0,0-2.77,4.37,40.81,40.81,0,0,0-1.58,9.13,4.53,4.53,0,0,0,3.46.94c1.78-.06,3-1.39,4.6-2.05l5.8-2.52A141.05,141.05,0,0,1,23,476.2l4.43-.17c-.81.71-1.58,1.48-2.48,2.26-3,2.57-5.16,5.82-7.42,8.76l-2.19,3.49a3.69,3.69,0,0,1-.52.81,8.53,8.53,0,0,0-.86,1.29c-.55,1.2-1.11,2.41-1.67,3.61-3.73,8.16,1.49,9.86,5.41,6.83l2.12-.6a1.89,1.89,0,0,0-.19,1.43h0s.38,3.18.74,4.72a2.63,2.63,0,0,1,.07.49c.36,1.9,1.68,3.27,2.23,4.63h.05c2.16,4.38,5.05-.63,5.05-.63l0,0c1.12-1.93,1.57-4.52,3.14-6.07h0s2.82-5.72,4.1-6.42h0A35.49,35.49,0,0,1,37.91,498c3.29-2.82,1.94-1.46,3.33-3.7a5,5,0,0,1,.15,1.87h0a7.5,7.5,0,0,1-.32,1.81,100.46,100.46,0,0,0-1.32,10.28l0,.78h0v.18h0c0,3.23.06,7.16,1.28,9.59a2.54,2.54,0,0,0,2.39,1.52l.4,0c1,.08-1,.13.88,0,3.24-.16,4.1-2.93,5.16-5.45l.12-.28c.27-.69.55-1.38.83-2.08.46-.95,1-2,1.37-2.76l.12-.28c0-.06.08-.2.11-.26a1.89,1.89,0,0,1,.11-.25l3.25-4.61c0-.06.09-.2.12-.25a3.66,3.66,0,0,1,.57-1c.78-1,1.27-1.08,2.11-2.18,1,1.7-.33,4.65-.31,6.28q-.18,7.88-.34,15.75l.24,6.26c.24,4.12,1.47,7.95,2.27,11.52l5.68,15.39,4.23,6a66.51,66.51,0,0,1-7.6,0c-24-1.53-33.06-16.34-36.56-18.63C25,548.75,37.66,565.3,42,570.16c10,11.24,24.28,23.49,38.76,33.17,7.14,4.77,23,15.46,31.4,19.81,19.82,10.28,28.53,15.88,52.42,26.6l37.61,16.79c2.94,1.25,6,2.33,9.67,3.81s6.41,2.45,9.8,3.76c7.53,2.89,12.58,5,20.16,7.75,6.42,2.3,39.28,14.53,42.5,14.42v-1.68c-11.06-2.44-40-20.16-47.79-26.06-17.21-13.06-26.15-26.21-25.32-39.26l1,.28c.27.07.46.13.91.23l13.51,3,.68.13,46.66,5.17c1.55.11,3.29.2,5.12.28l15.21,0,15.22,0c1.83-.08,3.57-.17,5.12-.28L361.26,633l.68-.13,13.51-3c.45-.1.63-.16.91-.23l1.79-.52c1,13.14-8,26.36-25.3,39.5-7.77,5.9-36.73,23.62-47.79,26.06v1.68c3.22.11,36.07-12.12,42.5-14.42,7.58-2.71,12.63-4.86,20.16-7.75,3.39-1.31,6.18-2.28,9.8-3.76s6.73-2.56,9.67-3.81l37.61-16.79c23.89-10.72,32.6-16.32,52.42-26.6,8.39-4.35,24.26-15,31.4-19.81,14.48-9.68,28.75-21.93,38.76-33.17,4.32-4.86,17-21.41,15.82-26.57-3.51,2.29-12.54,17.1-36.56,18.63a65.36,65.36,0,0,1-8.4,0l4.2-6,5.68-15.39c.79-3.57,2-7.4,2.27-11.52l.24-6.26-.34-15.75c0-1.63-1.35-4.58-.31-6.28.84,1.1,1.33,1.21,2.11,2.18a3.66,3.66,0,0,1,.57,1s.09.19.12.25l3.25,4.61c0,.05.08.19.11.25s.08.2.11.26l.12.28c.35.78.91,1.81,1.37,2.76l.83,2.08.12.28c1.06,2.52,1.92,5.29,5.16,5.45,1.92.09-.07,0,.88,0l.4,0a2.54,2.54,0,0,0,2.39-1.52c1.5-3,1.3-8.23,1.24-11.66h0v0a73.06,73.06,0,0,0-1.45-9.68h0a6.87,6.87,0,0,1,0-3.13c1.4,2.24.05.88,3.34,3.7.92.79,1.65,1.39,2.16,1.84l.1.09a3.28,3.28,0,0,1,.76.82,36.25,36.25,0,0,1,3.51,5.82c2,1.47,2.39,4.4,3.63,6.51h0v0h0l0,.06c.12.19.25.38.38.56h0c.89,1.19,3,3.32,4.62,0a4.54,4.54,0,0,0,.21-.45c.64-1.26,1.76-2.56,2-4.33a2.9,2.9,0,0,1,0-.34c.37-1.54.77-4.54.77-4.54h0c-.1-.43.25-.87-.21-1.61l2.12.6c3.92,3,9.14,1.33,5.41-6.83l-1.68-3.61a8,8,0,0,0-.85-1.29,3.69,3.69,0,0,1-.52-.81L571,487.05c-2.27-2.94-4.46-6.19-7.42-8.76-.9-.78-1.67-1.55-2.49-2.26l4.44.17A141.05,141.05,0,0,1,582,482.79l5.79,2.52c1.57.66,2.83,2,4.61,2.05,5.52.2,4.54-4.07,3.44-6.86l-.2-.41c-.24-.48-.44-.89-.58-1.19l-.33-.69a63,63,0,0,0-3.57-5.7c-1.36-1.53-2.8-2.9-4.23-4.6l-1.08-1.09-.38-.33-.19-.17-.19-.17-1-.83c-5.85-4.05-9.56-7.12-17.21-9.86l-6.09-2.17c-.9-.37.15,0-.84-.43l-2.55-1c-1.09-.38-1.05-.36-2.14-.68a47.29,47.29,0,0,1-4.71-1.45l25.27.74a5,5,0,0,0,5-2.79v0c0-.05-.19-.18,0-.33-.27-2.68-4.52-4.11-4.52-4.11h0a38.24,38.24,0,0,1-5.69-1.05l-31.52-6.12c-1.69-.41.24-.07-1.44-.38-.35-.07-1.4-.18-2.54-.33a9.72,9.72,0,0,1-1.79-.3l-.83-.24-13.84-2-.3-.08L474.87,429c-6.78,0-16.67-1.11-23.54,0l-.28,0-1,.07c0-.07.07-.26.08-.21s.08-.19.09-.22a46.58,46.58,0,0,0,2.46-12.78V411c-.38-4,1.51-8.51,2.06-12.46l4.28-26c.52-2,.23-.64.28-2.77l.93-10a136.2,136.2,0,0,0,.54-24.13c-.74-9-.54-12.85-3.12-21.92-.78-2.74-.55-3.49-1.54-5.75l-1.37-4.27ZM286.47,220.43c-.06-.05.17-.22.17-.15h0s-.11.2-.17.15ZM114.81,429c0-.05.18-.23.18-.15h0s-.12.2-.18.15Zm-30,2,.18-.16s-.12.21-.18.16Zm-16.17,2,.17-.15s-.12.2-.17.15ZM26.94,453.32c-.05-.05.18-.22.18-.15h0s-.12.2-.18.15ZM-.83,469.64l.17-.15s-.12.2-.17.15Zm18.42,16.44.18-.15s-.12.2-.18.15Zm21.5-36.82-.18.15c0-.07.12-.2.18-.15Zm263-228.83c-.06,0-.16-.14-.18-.15h0c0-.07.23.1.18.15ZM473.71,429s-.16-.14-.17-.15h0c0-.08.23.1.17.15Zm30,2c-.05.05-.16-.15-.17-.16l.17.16Zm16.18,2c-.06.05-.16-.14-.17-.15l.17.15Zm41.65,20.38c-.05.05-.16-.14-.17-.15s.23.1.17.15Zm27.78,16.32c-.06.05-.16-.14-.17-.15l.17.15Zm-18.42,16.44c-.06.05-.17-.14-.18-.15l.18.15Zm-21.5-36.82c.06-.05.17.08.18.15Z" transform="translate(7.37 -114.22)"/><path class="cls-2" d="M338.43,561.36c-2.75,10.34-8.38,19.79-15.67,28l-.13.13c-9.44,9.9-20.94,15.07-34.08,15.53l-2.48.07c-15.66.11-29.5-7.07-40.35-19.45-7-8.42-11.09-19.07-13.38-29.62-.23-1-.46-2.12-.64-3.17a60,60,0,0,1-13.19,20.53.1.1,0,0,0,0,.09c-9.11,9-20.52,13.07-33.62,12.55-.87,0-1.7-.07-2.52-.1-15.8-.66-29.55-8-40.86-20.56-7.24-8.35-11.59-18.9-14.2-29.4a.22.22,0,0,0-.05-.16A173,173,0,0,1,122,558.1c-.55,1.74-1.1,3.52-1.65,5.27-2.06-.45-4.13-.89-6.19-1.37-.23-.08-.46-.2-.64-.26-4.72-2.06-9.44-4.06-14.2-5.92a37.9,37.9,0,0,0-5.82-2l-2.79-.49a1.54,1.54,0,0,1-.14-.23c-2.29-.42-4.58-.81-6.87-1.24,1.51-2.81,3-5.6,4.58-8.43,2.93-5.34,4.26-13,5.09-19.14a131.63,131.63,0,0,0-.28-35c-8.11.24-16.17.56-24.23,1-.23-2.13-.46-4.25-.69-6.41-.73-7.26-1.46-14.53-1.92-21.81-.28-3.82-.69-8-.18-11.76.87-6.47,6.82-6,11.58-5.56s9.3,1.27,13.93,2c18.23,2.88,36.46,6.16,54.69,9.7.37,1.5.78,3,1.19,4.51,1.65,6.18,1,16.34.78,22.75,0,1.4-.09,2.83-.09,4.25a81.46,81.46,0,0,1,9.39-4.7,99.38,99.38,0,0,1,17.32-5c.18-.05.36-.07.59-.13,2.8,0,5.59,0,8.43,0a.23.23,0,0,0,.09,0c19.93.79,35.82,10.51,45,30.22a.12.12,0,0,0,.05.12,64.36,64.36,0,0,1,5.49,20c5.82-12,17.91-19.67,29.73-24.74a113.61,113.61,0,0,1,17.5-5.71c.18-.05.37-.12.6-.17,2.79-.2,5.63-.38,8.47-.56h.09c19.88-.95,35.64,7.15,44.25,25.68,0,.05,0,.1.05.11.78,1.8,1.46,3.61,2.06,5.45-.23-6.3-.37-12.6-.46-18.9,0-1.93-.09-3.89-.09-5.85q16.62-3.89,33.35-8.12c.73,1.05,1.51,2.09,2.29,3.11,6.45,8.67,12.87,17.35,19.14,26.12.69.93,1.33,1.87,2,2.77q2.06-18.43,4.12-36.91c1.24-1.43,2.47-2.86,3.76-4.33l26.38-1.5c-.5-5.52-1-11.07-1.42-16.62,1.24-1.64,2.48-3.31,3.76-5,25-4.77,49.93-9.12,74.94-12.66.5.26,1.05.53,1.6.77,2.93,1.43,4,5.17,5.09,8.1,1.69,4.47,3.25,9,4.85,13.48.37,1.13.73,2.25,1.15,3.37l-2.06,2.94c-4.77,6.73-9.59,13.54-14.3,20.37s-9.52,13.77-14.24,20.72c-1.06,1.6-2.15,3.19-3.25,4.77q16.89-.76,33.8-.89c1.24,1.22,2.52,2.44,3.8,3.66q1,12.25,2.11,24.48c-1.28,1.61-2.56,3.21-3.8,4.79-26.16,2.44-52.27,5.88-78.38,10-2.38-9.12-4.76-18.28-7.1-27.42.87-1,1.74-2,2.66-3,1.33-1.53,2.57-3.14,3.8-4.71,3.16-3.93,6.28-7.85,9.44-11.79q11.74-14.67,23.45-29.23c-13.47,2.84-26.89,5.86-40.31,8.94-.46-.31-.91-.61-1.37-.94-1.47,14.86-3,29.73-4.4,44.57s-2.93,29.69-4.35,44.53l-30.6,7.79c-.73-1.28-1.47-2.57-2.15-3.85-5.41-9.78-10.81-19.58-16.31-29.38q.75,8.49,1.51,17a1.38,1.38,0,0,0-.05.45c-.27,6.83-7.14,7.34-11.91,8-5.86.86-11.68,1.58-17.54,2.26a3.46,3.46,0,0,0-.37,0h-.13c-5,.18-6.14-3.56-6.42-8-.13-2.21-.23-4.43-.27-6.64q-.27-7.21-.55-14.39Zm-193.17-71.6c-5.63-.15-11.27-.29-16.86-.41a128.62,128.62,0,0,1,1.24,16.82C133.26,499.37,138.89,494,145.26,489.76Z" transform="translate(7.37 -114.22)"/><path class="cls-2" d="M431,500.86q-2.26,22.56-4.49,45.13t-4.4,45.1q-14.43,3.67-28.86,7.32c-.59-1-1.19-2.07-1.74-3.12-6.36-11.42-12.69-22.86-19.1-34.29.64,7.59,1.28,15.21,2,22.79v.36c-.27,5.88-6.78,6.16-10.81,6.74-5.82.84-11.68,1.56-17.5,2.25a1.23,1.23,0,0,0-.27,0,.34.34,0,0,0-.14,0c-4.4.13-5-3.26-5.27-6.92-.13-2.21-.18-4.41-.27-6.6-.37-8.67-.64-17.35-1-26-.23-6.67-.51-13.34-.74-20s-.41-13.34-.5-20c-.05-1.57-.05-3.15-.05-4.75q15.74-3.7,31.56-7.69c.6.84,1.24,1.68,1.88,2.52,6.46,8.63,12.87,17.29,19.15,26.06,1.24,1.77,2.52,3.57,3.8,5.35.74-6.62,1.47-13.26,2.2-19.88s1.47-13.28,2.24-19.91c1-1.17,2.07-2.36,3.12-3.54,8.89-.5,17.77-1,26.66-1.54.18.23.41.46.64.7-.55-6.06-1.05-12.13-1.56-18.2,1-1.39,2.06-2.75,3.12-4.14,24.69-4.72,49.38-9,74.11-12.51.42.23.87.44,1.33.65,2.52,1.22,3.58,4.86,4.49,7.4,1.7,4.45,3.25,8.94,4.86,13.41.32.92.64,1.82,1,2.75-.6.79-1.15,1.58-1.7,2.37-4.76,6.72-9.58,13.56-14.29,20.37s-9.53,13.77-14.24,20.69c-1.56,2.29-3.12,4.56-4.68,6.83q17.81-.81,35.69-1c1,1,2.06,2,3.11,3,.64,7.83,1.33,15.65,2,23.44-1.06,1.32-2.11,2.64-3.12,4-25.65,2.41-51.3,5.77-76.91,9.79-2.24-8.57-4.49-17.15-6.68-25.73.68-.79,1.42-1.61,2.15-2.44,1.37-1.53,2.61-3.14,3.89-4.74,3.16-3.94,6.28-7.84,9.39-11.78,8.61-10.65,17.13-21.29,25.7-31.83q-21.57,4.5-43.1,9.47c-.92-.61-1.79-1.24-2.66-1.85ZM233.44,538.25c0-.76-.05-1.53-.09-2.34,0-.62-.09-1.25-.09-1.89A62,62,0,0,0,227.71,513s0-.06,0-.11c-9-19.21-24.37-28.58-43.89-29.35h-.09c-2.74,0-5.49,0-8.24,0l-.51.12a97.59,97.59,0,0,0-17.13,5c-12.82,5.45-25.33,14.28-29.68,27.86a132,132,0,0,0-1.37-24.27c6.59.15,13.23.29,19.88.48,0-1.65.09-3.32.13-5,.14-5.93.78-16.7-.73-22.34-.37-1.21-.69-2.43-1-3.65-18-3.48-35.91-6.71-53.87-9.52-4.62-.74-9.25-1.5-13.92-2-4-.4-9.58-1.12-10.31,4.49-.5,3.55,0,7.86.18,11.45.51,7.27,1.2,14.51,2,21.74.14,1.73.33,3.48.51,5.21,8.06-.43,16.12-.71,24.23-.94a134.41,134.41,0,0,1,.46,36.38c-.83,6.23-2.25,14.13-5.22,19.57-1.29,2.27-2.52,4.56-3.76,6.81,1.88.35,3.76.68,5.63,1l.14.23c.73.13,1.51.26,2.29.41a38.17,38.17,0,0,1,6,2.11c4.81,1.86,9.53,3.84,14.29,5.9a3.28,3.28,0,0,0,.46.23c1.7.38,3.39.75,5.09,1.1.41-1.42.87-2.85,1.33-4.28a166.37,166.37,0,0,0,6.13-27.82c0-.39.14-.82.19-1.24a42.64,42.64,0,0,0,1.33,7.22c2.56,10.24,6.82,20.62,13.92,28.79,11.09,12.3,24.42,19.43,39.94,20.08l2.52.09c12.78.51,24-3.37,32.8-12.22,0,0,0,0,.09-.06,7-7.3,12.28-15.88,14.66-25.68a44.17,44.17,0,0,0,1.24,9.09c2.24,10.31,6.18,20.75,13.1,29,10.67,12.14,24.05,19,39.44,18.94.82,0,1.65,0,2.52-.05a46.81,46.81,0,0,0,33.25-15.12s0-.07.1-.11a72.31,72.31,0,0,0,12.73-19.67,53.29,53.29,0,0,0,4.4-22.79c-.05-.65-.05-1.27-.05-1.91a56.08,56.08,0,0,0-4.9-20.39.18.18,0,0,1-.05-.15c-8.42-18.14-23.63-25.88-43.1-24.95h-.09c-2.8.16-5.54.36-8.29.54l-.51.13A112.24,112.24,0,0,0,264.59,509C250.94,514.85,237.7,523.82,233.44,538.25Z" transform="translate(7.37 -114.22)"/><path class="cls-3" d="M479.1,525.42q18.76-.88,37.61-1.12c.78.77,1.6,1.55,2.43,2.32q1,11.19,1.92,22.4c-.82,1-1.65,2.08-2.47,3.1-25.15,2.39-50.3,5.68-75.4,9.58q-3.17-12-6.23-24,.82-.92,1.65-1.86c1.33-1.51,2.66-3.21,3.89-4.77,3.16-3.91,6.32-7.83,9.44-11.75l27.8-34.42q-23,4.77-45.8,10.05l-2.89-2c-.78-8.75-1.56-17.49-2.29-26.24l2.47-3.28c24.42-4.66,48.83-8.87,73.29-12.35.33.17.69.33,1.06.51,2.06,1,3.11,4.63,3.89,6.71,1.65,4.41,3.25,8.91,4.81,13.34.23.71.46,1.41.73,2.11-.45.6-.87,1.21-1.28,1.82-4.76,6.72-9.53,13.54-14.29,20.34s-9.53,13.76-14.29,20.67l-6,8.88ZM125.33,484.49A128.41,128.41,0,0,1,127,505.87,160.53,160.53,0,0,1,125.47,527a169.15,169.15,0,0,1-6.09,27.55c-.37,1.09-.69,2.21-1,3.29-1.33-.28-2.65-.56-3.94-.85a3,3,0,0,0-.41-.17c-4.72-2.07-9.48-4.08-14.29-5.94a45.85,45.85,0,0,0-6.19-2.16c-.64-.1-1.23-.22-1.83-.33a1.74,1.74,0,0,1-.13-.2c-1.47-.26-2.94-.52-4.36-.81l2.89-5.2c3-5.55,4.49-13.67,5.36-19.93a130.34,130.34,0,0,0,1-18.86,145.79,145.79,0,0,0-1.61-18.95c-8.06.21-16.12.49-24.18.9-.14-1.31-.28-2.65-.41-4-.74-7.2-1.47-14.43-2-21.63-.19-3.28-.6-8-.19-11.16.64-4.73,6-3.74,9-3.45,4.67.53,9.34,1.27,13.92,2,17.68,2.75,35.36,5.9,53.05,9.32.23,1,.45,1.9.73,2.82,1.37,5,.82,16.78.73,21.89,0,1.27-.09,2.54-.09,3.82-6.73-.2-13.47-.35-20.16-.48Zm58.55-6.14a.15.15,0,0,1-.1,0l-8.1,0c-.14,0-.27.07-.37.09a97.78,97.78,0,0,0-16.95,4.9c-8.11,3.41-16.08,8.15-21.85,14.61a33.4,33.4,0,0,0-8.7,25.07c0,.36,0,.69,0,1a44.12,44.12,0,0,0,1.52,8.89c2.47,10,6.59,20.16,13.6,28.16,10.9,12.06,23.87,18.91,39,19.55l2.52.12c12.51.51,23.33-3.34,32-11.86,0,0,0-.07.09-.08a57.81,57.81,0,0,0,12-17.71,47.92,47.92,0,0,0,3.62-21.8c0-.63-.1-1.27-.14-1.91a59.69,59.69,0,0,0-5.41-20.53c0-.05,0-.06,0-.11-8.75-18.68-23.64-27.69-42.69-28.46Zm107,19.14c19.05-.86,33.75,6.59,42,24.21,0,0,0,.08,0,.11a55.31,55.31,0,0,1,4.81,19.93c0,.63,0,1.27.05,1.9a51.71,51.71,0,0,1-4.31,22.23A70.15,70.15,0,0,1,320.93,585s-.09.08-.09.1c-9,9.4-20,14.29-32.48,14.71-.87,0-1.69,0-2.52.05-15.11.14-28-6.51-38.52-18.45-6.73-8-10.58-18.28-12.78-28.31a45.18,45.18,0,0,1-1.24-8.93c0-.33,0-.67,0-1a33.52,33.52,0,0,1,9.43-24.79c6-6.37,14.13-11.06,22.4-14.63a120.65,120.65,0,0,1,17.13-5.58l.37-.11,8.15-.53Zm79.79,51.25c.41.78.87,1.57,1.33,2.34,3.43,6.13,6.91,12.26,10.31,18.4s6.82,12.27,10.26,18.39c.41.81.87,1.6,1.33,2.38,9-2.26,18-4.57,27.07-6.86,1.51-15.61,3.11-31.29,4.62-46.89s3.12-31.26,4.68-46.89c0-.67,0-1.33,0-2-.82-.81-1.6-1.63-2.38-2.47q-12.86.74-25.65,1.5c-.83.9-1.65,1.83-2.43,2.75-.82,7.11-1.65,14.23-2.43,21.33s-1.55,14.19-2.33,21.29c-1.88-2.67-3.76-5.3-5.64-7.92-6.27-8.73-12.69-17.36-19.14-26-.51-.64-1-1.3-1.43-1.94q-14.91,3.75-29.82,7.25c0,1.22,0,2.43.05,3.64.09,6.67.28,13.31.5,20s.51,13.29.78,19.89c.28,8.67.6,17.3.92,25.94l.27,6.58c.19,2.56.28,5.91,4.13,5.78h.13l.19,0c5.81-.66,11.68-1.42,17.5-2.24,3-.43,9.43-.51,9.66-5.4v-.28C372.28,567.76,371.46,558.26,370.63,548.74Z" transform="translate(7.37 -114.22)"/><path class="cls-4" d="M141,457.1c.6,2.29.78,9.23.5,20.74q-10.5-.27-21-.41a115.65,115.65,0,0,1,2.43,21.92,163,163,0,0,1-1.42,24.21,160.78,160.78,0,0,1-6,27.08l-.13,0c-12.14-5.23-19.24-8-21.3-8.41-.09,0-.14,0-.19,0l-.14-.21s-.09,0-.13-.05c2.56-4.7,4.54-11.84,5.81-21.41a131.55,131.55,0,0,0,1.06-20.67,161.83,161.83,0,0,0-2.25-22.42c-8,.17-16,.4-24,.76-1.88-18.18-2.64-28.83-2.2-32,.07-.5,6.27.12,18.55,2.09C107.42,450.89,124.19,453.86,141,457.1Z" transform="translate(7.37 -114.22)"/><path class="cls-5" d="M140,458.17q-24.74-4.76-49.47-8.64c-2.43-.4-13.83-2.37-17.27-2.28a67.71,67.71,0,0,0,.32,9.21c.46,6.82,1.1,13.6,1.79,20.39q12-.53,23.91-.71a10.06,10.06,0,0,0,.18,1.12,165.43,165.43,0,0,1,2.25,21.79,131.66,131.66,0,0,1-1,21.69c-.88,6.57-2.34,14.46-5.27,20.49,2,.54,4.21,1.5,6,2.18,4.49,1.73,9,3.64,13.42,5.58a161.91,161.91,0,0,0,5.5-25.71,163.43,163.43,0,0,0,1.47-22.73,117.6,117.6,0,0,0-2.39-22.93c-.13-.49-.23-1-.32-1.46,7.1.1,14.2.21,21.35.38C140.45,471.89,140.77,462.47,140,458.17Z" transform="translate(7.37 -114.22)"/><path class="cls-4" d="M409.34,487.52c5.54-.28,11.08-.57,16.67-.89a.65.65,0,0,0,.19.17V487q-2.28,22.76-4.49,45.47t-4.45,45.47l-21.21,5.41q-12.84-23.2-20.61-37c-5.17-9.22-8.66-15.33-10.44-18.26a.92.92,0,0,0-.05.36q1,11.77,2.06,23.57t2.06,23.55c0,.23-7.74,1.37-23.27,3.28q-.41,0-1.42-34.79c-.36-8-.68-15.3-.87-22s-.32-12.68-.36-18c7.92-1.86,15.89-3.84,23.86-5.85,7.61,10.24,14,19,19.06,26.09S395,537,397.61,541.05a.41.41,0,0,0,0,.2l.18,0c1-8.86,2-17.72,2.93-26.56s2-17.71,3-26.59a1,1,0,0,1,.18-.18C405.67,487.79,407.51,487.66,409.34,487.52Z" transform="translate(7.37 -114.22)"/><path class="cls-6" d="M404.76,489.1c-1,8.92-2.06,17.79-3,26.67s-2,17.77-2.93,26.66l-2.47.15a9.39,9.39,0,0,1,0-1.05c-3.57-5.62-7.42-11.09-11.26-16.49q-9.21-12.84-18.65-25.49c-7.37,1.84-14.75,3.69-22.12,5.42.09,6.5.27,13,.5,19.46s.51,13,.74,19.42c.32,8.33.59,16.7.91,25,.05,2,.05,6.1.32,8.5,5.18-.57,10.35-1.25,15.58-2,1.28-.18,3.75-.43,5.4-.79-.69-7.66-1.42-15.33-2.06-23s-1.33-15.37-2-23.08c.05-1.53.09-3.06.18-4.63.69,1.12,1.38,2.26,2.06,3.38,3.67,5.93,7.1,12.19,10.54,18.28s6.78,12.14,10.12,18.17,6.74,12.1,10.08,18.15l19.42-5c1.42-14.81,2.89-29.65,4.31-44.45s2.93-29.67,4.4-44.47Z" transform="translate(7.37 -114.22)"/><path class="cls-4" d="M433.25,464.28c23.5-4.48,47-8.54,70.5-11.89q.54.27,6.73,17.86c-12.69,18.2-22.33,32.18-28.81,41.78s-10,14.87-10.35,15.58q21.84-1.26,43.74-1.63a.45.45,0,0,0,.18.15l1.65,19.24a3.32,3.32,0,0,0-.32.36c-23.45,2.27-46.9,5.32-70.31,8.94q-2.42-9.31-4.81-18.64,1.37-1.56,13.47-16.74c8.05-10.1,19.78-24.59,35-43.36q-27.48,5.4-54.88,11.73a.45.45,0,0,1-.18-.14c-.69-7.61-1.33-15.21-2-22.84A3.28,3.28,0,0,1,433.25,464.28Z" transform="translate(7.37 -114.22)"/><path class="cls-7" d="M434.26,465.37q.89,10.41,1.78,20.79,28.45-6.48,57-12.08c-.74.89-1.47,1.77-2.16,2.64q-8.79,10.69-17.54,21.53T455.83,520c-4.17,5.24-8.61,11.14-13.05,16.24q2.19,8.51,4.39,17c22.82-3.49,45.63-6.47,68.44-8.7-.5-5.76-1-11.53-1.47-17.29q-22.53.39-45,1.78l1.1-2c.83-1.48,2-3.15,2.93-4.55,2.52-3.73,5-7.44,7.52-11.18,4.71-6.93,9.41-13.88,14.15-20.78s9.48-13.67,14.25-20.49c-1.42-4-2.84-8-4.31-12-.37-1-1.1-3.13-1.69-4.34C480.16,457.05,457.21,461,434.26,465.37Z" transform="translate(7.37 -114.22)"/><path class="cls-4" d="M184.15,479.73q27.21,1.06,38.85,26a57.63,57.63,0,0,1,5,19.09c0,.64.1,1.27.14,1.91a45.06,45.06,0,0,1-3,19.3,53.78,53.78,0,0,1-11.49,17.43Q201.72,575,184.2,574.35l-2.52-.11q-20.34-.84-35.82-18.09-8.46-9.75-12.65-26.48a46,46,0,0,1-1.32-8c0-.35,0-.7,0-1.06a29.49,29.49,0,0,1,6.32-20.67c4.71-6,12.09-11.16,22-15.4a102.68,102.68,0,0,1,16.31-4.74C179,479.75,181.59,479.75,184.15,479.73Z" transform="translate(7.37 -114.22)"/><path class="cls-8" d="M176.73,481a93.66,93.66,0,0,0-16,4.66c-7.1,3-14.33,7.15-19.6,12.83a28.77,28.77,0,0,0-8.11,22.1,9.12,9.12,0,0,0,.09,1,39.08,39.08,0,0,0,1.28,7.79c2.29,9.17,6,18.63,12.28,25.91,9.76,10.87,21.3,17.08,34.95,17.64l2.48.09c11.22.45,20.79-3,28.58-10.6a54,54,0,0,0,10.86-16,43.93,43.93,0,0,0,3.39-19.8c-.05-.62-.1-1.28-.14-1.91a56.62,56.62,0,0,0-4.9-18.61c-7.79-16.75-20.75-24.49-37.66-25.15C181.72,481,179.2,481,176.73,481Z" transform="translate(7.37 -114.22)"/><path class="cls-4" d="M291,498.9c18.19-.8,30.92,6.44,38.16,22.17a52.08,52.08,0,0,1,4.49,18.53c0,.64,0,1.29.05,1.91a47.89,47.89,0,0,1-3.62,19.68A65.7,65.7,0,0,1,318,580a41.58,41.58,0,0,1-29.77,13.49c-.87,0-1.7.06-2.52.07-13.61.1-25.38-5.6-35.41-17-5.45-6.54-9.44-15.42-11.87-26.57a42.47,42.47,0,0,1-1.1-8.05c0-.35,0-.7,0-1.06a29.83,29.83,0,0,1,7-20.5q7.35-8.93,22.49-15.5a113.42,113.42,0,0,1,16.53-5.43Z" transform="translate(7.37 -114.22)"/><path class="cls-9" d="M283.51,500.67A103.85,103.85,0,0,0,267.34,506c-14.48,6.24-29.41,16.47-28.82,34.9a7.31,7.31,0,0,0,0,1,35.5,35.5,0,0,0,1.05,7.8c2,9.16,5.45,18.65,11.55,26,9.43,10.69,20.88,16.62,34.49,16.5.82,0,1.65,0,2.52-.05a40.31,40.31,0,0,0,28.95-13.09c9.39-10.49,15.8-23.09,15.3-37.44-.05-.64-.05-1.28-.05-1.91A50.49,50.49,0,0,0,328,521.65c-7.28-15.84-20.06-22.23-37-21.49C288.5,500.34,286,500.49,283.51,500.67Z" transform="translate(7.37 -114.22)"/><path class="cls-10" d="M303.66,520.61c6.32,6.14,12.6,14.28,12.92,23.73v.71a25.52,25.52,0,0,1-1.15,8.45c-4.16,11.56-11.31,21.08-23.77,21.59a34.29,34.29,0,0,1-15.94-3.9c-.05,0-.05,0-.05,0s0,0,0,0a40.86,40.86,0,0,0-4.95-2.8,1.23,1.23,0,0,1-.27,0,2.44,2.44,0,0,1-.32-.23c-7.88-5.54-14.89-13.28-15.21-23.54-.23-6.29,2.65-12,6.32-16.68,7.37-8,16.72-11.63,27.53-11.8l1.33,0C294.32,516,301.33,516.1,303.66,520.61Z" transform="translate(7.37 -114.22)"/><path class="cls-11" d="M256.07,545.89c.25,8.22,5.17,15.75,14.66,22.45.41,0,2.24,1,5.49,3,5.45,2.65,10.59,3.92,15.39,3.75,10.27-.36,17.87-7.31,22.68-20.75a23.19,23.19,0,0,0,1.1-7.92c0-.25,0-.48-.05-.73-.22-7.46-4.44-15.06-12.69-23-1.37-3-5.54-4.25-12.55-4h-1.33c-10.9.21-19.78,4-26.66,11.47C258,535.42,255.91,540.67,256.07,545.89Z" transform="translate(7.37 -114.22)"/><path class="cls-12" d="M261.38,532.55a5.76,5.76,0,0,0,2,5c2.45,2.21,17.61,10.11,23.13,15.12s16.08,12.12,18.83,11.35-3-11.81-7.7-15.52-23.75-20.73-27.94-21.05-7.44.45-7.51,1.4A36.85,36.85,0,0,1,261.38,532.55Z" transform="translate(7.37 -114.22)"/><path class="cls-12" d="M267.43,569.48a5.89,5.89,0,0,0,5.22-1.8c2.66-2.48,13.72-18.13,19.93-23.86s15.94-17,15.94-20-12.23,3.1-17.09,8S265.5,556,264.27,560.35s-1.12,7.89-.23,8A31.48,31.48,0,0,1,267.43,569.48Z" transform="translate(7.37 -114.22)"/><path class="cls-10" d="M259.6,565.94a7.3,7.3,0,0,0,8,6.4,7.15,7.15,0,0,0,6.32-7.94,7.22,7.22,0,0,0-8-6.27A7,7,0,0,0,259.6,565.94Z" transform="translate(7.37 -114.22)"/><path class="cls-10" d="M296.15,523.39a6.79,6.79,0,0,0,8,5.9,7.67,7.67,0,0,0,6.32-8.3,6.77,6.77,0,0,0-8-5.85A7.61,7.61,0,0,0,296.15,523.39Z" transform="translate(7.37 -114.22)"/><path class="cls-13" d="M272.33,565.54a154.5,154.5,0,0,1,15.07-20.4,232.89,232.89,0,0,1,17.54-18c.92-4.15-2.29-8.16-6-6.57-6.23,6-12.3,12.09-18.1,18.51s-11.31,13-16.53,20.07C262.71,564.49,267.15,567.76,272.33,565.54Z" transform="translate(7.37 -114.22)"/><path class="cls-14" d="M302.65,529.27c.78-.7,1.52-1.43,2.29-2.15a.68.68,0,0,0,.05-.32c-.69-.21-1.37-.44-2.06-.69,0,0-6.78,2.29-9.48-.21-.55.56-1.15,1.13-1.7,1.69,1.42,1.06,6.53,2.57,9,2.08S302.1,529.41,302.65,529.27Z" transform="translate(7.37 -114.22)"/><path class="cls-14" d="M272.33,565.54a154.5,154.5,0,0,1,15.07-20.4,232.89,232.89,0,0,1,17.54-18,6.28,6.28,0,0,0-1.14-5.27c-3,3.44-12.19,14.64-20.71,24.78s-16.26,19.19-16.26,19.19A7.11,7.11,0,0,0,272.33,565.54Z" transform="translate(7.37 -114.22)"/><path class="cls-10" d="M264.86,519.64a7.58,7.58,0,0,0-5.59,8.73c.67,4,4.22,6.71,8,5.88a7.77,7.77,0,0,0,5.64-8.86A6.73,6.73,0,0,0,264.86,519.64Z" transform="translate(7.37 -114.22)"/><path class="cls-10" d="M307.51,552.23a8.26,8.26,0,0,0-5.63,9.14,6.28,6.28,0,0,0,8,5.34,8.43,8.43,0,0,0,5.59-9.29A6.19,6.19,0,0,0,307.51,552.23Z" transform="translate(7.37 -114.22)"/><path class="cls-13" d="M266.05,532.75c14.66,7.84,26.85,18,37.93,29.17,4,.34,7.83-3.69,6.28-7.28a263,263,0,0,0-38.48-30.88C266.51,522.7,263.63,527.58,266.05,532.75Z" transform="translate(7.37 -114.22)"/><path class="cls-14" d="M274.12,537.48c1.14.7,2.24,1.45,3.34,2.2a.91.91,0,0,1,.09-.31s-2.84-8.61,1.24-10.77l-2.2-1.58a13.63,13.63,0,0,0-2.47,10.46Z" transform="translate(7.37 -114.22)"/><path class="cls-14" d="M284.19,544.51c1.06.77,2.06,1.58,3.07,2.37.09-.31.19-.64.28-1,0,0-2.52-7.61.59-10.36-.59-.49-1.23-1-1.88-1.48a14,14,0,0,0-2.15,10A1.37,1.37,0,0,0,284.19,544.51Z" transform="translate(7.37 -114.22)"/><path class="cls-14" d="M294.64,553.14c.68.64,1.42,1.27,2.1,1.89.28-.9.55-1.81.83-2.71,0,0-2-6-.23-9.31-.6-.46-1.14-1-1.74-1.42-1,1.85-2,6.59-1.51,9A19.68,19.68,0,0,0,294.64,553.14Z" transform="translate(7.37 -114.22)"/><path class="cls-14" d="M301.88,559.86c.68.67,1.42,1.37,2.1,2.06h.28c.23-.74.45-1.49.68-2.27,0,0-2.24-6.72.14-9.85-.59-.51-1.14-1-1.74-1.53-1,1.61-2.33,7.17-1.83,9.69S301.74,559.3,301.88,559.86Z" transform="translate(7.37 -114.22)"/><path class="cls-14" d="M266.05,532.75c14.66,7.84,26.85,18,37.93,29.17a6.3,6.3,0,0,0,5-2c-6.64-5.12-43.52-32.82-43.52-32.86A7.64,7.64,0,0,0,266.05,532.75Z" transform="translate(7.37 -114.22)"/><path class="cls-15" d="M199.59,500.58c7.33,7.58,14.75,17.54,15.44,28.28a5.56,5.56,0,0,0,0,.81,27,27,0,0,1-1,9.35c-4.31,12.6-12,22.62-26,22.07-6.23-.24-12.37-2.42-18.09-5.45h0c-.05,0-.05,0-.05,0a47.27,47.27,0,0,0-5.77-3.42,1.23,1.23,0,0,1-.27,0c-.14-.08-.23-.15-.32-.21-9-6.49-17.18-15.3-17.91-26.88-.46-7.15,2.56-13.49,6.55-18.76,8-8.83,18.41-12.57,30.6-12.07l1.55.08C188.92,494.51,196.89,495.31,199.59,500.58Z" transform="translate(7.37 -114.22)"/><path class="cls-16" d="M146.68,526.29q.88,14,17.36,25.88c.46,0,2.57,1.22,6.28,3.6q9.41,5,17.59,5.31,17.52.7,25.05-21.35a25.71,25.71,0,0,0,1-8.89c0-.27,0-.53-.05-.81q-.8-12.75-15.21-27.58c-1.65-3.5-6.46-5.41-14.38-5.74l-1.51,0q-18.48-.75-29.78,11.73Q146.13,517.39,146.68,526.29Z" transform="translate(7.37 -114.22)"/><path class="cls-17" d="M181,551.72" transform="translate(7.37 -114.22)"/><path class="cls-12" d="M207.38,515.11a5.89,5.89,0,0,1-1.84,5.32c-2.52,2.35-18.3,10.93-23.91,16.47S165.14,550.61,162.16,550s2.5-12.88,7.33-17.11,24.21-22.91,28.68-23.29,8,.54,8.15,1.57S207.38,515.11,207.38,515.11Z" transform="translate(7.37 -114.22)"/><path class="cls-12" d="M202.93,554.8s-2.63.74-5.63-1.91-15.69-19.34-22.68-25.28-18-17.42-18.14-20.6,13.22,2.59,18.69,7.69,29.07,25.54,30.65,30.29,1.69,8.51.73,8.66A31.42,31.42,0,0,0,202.93,554.8Z" transform="translate(7.37 -114.22)"/><path class="cls-15" d="M211.13,551.05a7.32,7.32,0,0,1-8.2,6.83,8.12,8.12,0,0,1-7.19-8.5,7.31,7.31,0,0,1,8.2-6.8A8.09,8.09,0,0,1,211.13,551.05Z" transform="translate(7.37 -114.22)"/><path class="cls-15" d="M169.68,505.81a7.27,7.27,0,0,1-8.2,6.78,8.16,8.16,0,0,1-7.24-8.5,7.3,7.3,0,0,1,8.2-6.8A8.19,8.19,0,0,1,169.68,505.81Z" transform="translate(7.37 -114.22)"/><path class="cls-13" d="M197.48,550.59c-10.49-15.81-23.27-28.68-37-40.27-1.24-4.42,2-8.91,6.09-7.43a304.28,304.28,0,0,1,39.21,40.78C207.74,549.48,203.16,552.94,197.48,550.59Z" transform="translate(7.37 -114.22)"/><path class="cls-14" d="M163,512.49c-.87-.72-1.69-1.43-2.56-2.17a3.18,3.18,0,0,1-.09-.33c.73-.3,1.46-.59,2.2-.87,0,0,7.37,2.05,10.07-.78.64.59,1.33,1.19,2,1.8-1.46,1.17-6.87,3-9.57,2.65S163.63,512.59,163,512.49Z" transform="translate(7.37 -114.22)"/><path class="cls-14" d="M197.48,550.59c-10.49-15.81-23.27-28.68-37-40.27a6.85,6.85,0,0,1,.91-5.75c3.35,3.51,13.84,15.1,23.46,25.77s18.5,20.49,18.55,20.51A7.45,7.45,0,0,1,197.48,550.59Z" transform="translate(7.37 -114.22)"/><path class="cls-15" d="M202.89,501.18a8.81,8.81,0,0,1,6.5,9.5c-.48,4.35-4.12,7.13-8.2,6.23a8.83,8.83,0,0,1-6.5-9.51C195.17,503.06,198.81,500.27,202.89,501.18Z" transform="translate(7.37 -114.22)"/><path class="cls-15" d="M159.14,537.48a8.81,8.81,0,0,1,6.51,9.48c-.48,4.33-4.13,7.15-8.2,6.25a8.83,8.83,0,0,1-6.51-9.51C151.42,539.35,155.06,536.57,159.14,537.48Z" transform="translate(7.37 -114.22)"/><path class="cls-13" d="M202.34,515.28c-15.26,8.51-27.67,19.84-38.85,32.39-4.26.61-8.61-3.41-7.14-7.41,5.86-6.34,12.09-12.46,18.59-18.25a216.21,216.21,0,0,1,20.8-16.35C201.33,504.47,204.67,509.74,202.34,515.28Z" transform="translate(7.37 -114.22)"/><path class="cls-14" d="M194,520.4c-1.15.8-2.34,1.58-3.44,2.42,0-.13-.09-.25-.13-.36s2.52-9.28-1.93-11.6c.78-.56,1.51-1.12,2.29-1.7,0,0,4.13,4.88,3.21,11.24Z" transform="translate(7.37 -114.22)"/><path class="cls-14" d="M183.65,528.11c-1.1.87-2.16,1.74-3.16,2.66a7.69,7.69,0,0,1-.37-1s2.25-8.27-1.24-11.13c.64-.56,1.33-1.11,2-1.65a15.26,15.26,0,0,1,2.84,10.75A1.46,1.46,0,0,0,183.65,528.11Z" transform="translate(7.37 -114.22)"/><path class="cls-14" d="M172.93,537.69c-.69.74-1.42,1.45-2.15,2.16-.37-1-.69-1.91-1-2.87,0,0,1.83-6.55-.28-10l1.79-1.61c1.14,1.94,2.47,7,2.11,9.6A26.06,26.06,0,0,1,172.93,537.69Z" transform="translate(7.37 -114.22)"/><path class="cls-14" d="M165.6,545.32c-.73.79-1.42,1.56-2.11,2.35l-.32,0c-.32-.79-.59-1.58-.87-2.38,0,0,2-7.38-.69-10.59.6-.6,1.15-1.19,1.75-1.77,1.14,1.7,2.9,7.56,2.51,10.31S165.69,544.72,165.6,545.32Z" transform="translate(7.37 -114.22)"/><path class="cls-14" d="M202.34,515.28c-15.26,8.51-27.67,19.84-38.85,32.39a6.84,6.84,0,0,1-5.54-1.81c3.39-3,14.56-12.11,24.87-20.52s19.79-16.14,19.84-16.16A8.17,8.17,0,0,1,202.34,515.28Z" transform="translate(7.37 -114.22)"/><path class="cls-18" d="M306.78,303.89a350,350,0,0,0,27.64-34.67c5.11-7.48,11.32-17.48,13.6-26.48a5.17,5.17,0,0,1,4.84-4l.66,0H354c10.11.55,20.22,1.19,30.32,2,7.3.61,14.65,1.31,21.92,2.32a92.78,92.78,0,0,1,13.9,2.72c3.68,1.12,8,3.06,8.46,7.63l.27,2.65c.67,6.44-1.65,13.15-4.35,18.77-3.85,8-9.32,15.68-14.75,22.6A355.22,355.22,0,0,1,385,325.29c-10,10.3-20.43,20.23-31,29.94l77.6,82.82a5.61,5.61,0,0,1,1.45,5,5.22,5.22,0,0,1-3.16,4l-52,21.76a5.12,5.12,0,0,1-5.66-1.12L301.58,399.4q-25.33,19.91-51,39.4C237.87,448.41,225.05,458,212,467a5,5,0,0,1-5.63.14l-42.77-25.92A5.53,5.53,0,0,1,160.9,437l-.18-1.74a5.39,5.39,0,0,1,2.05-4.95c19.54-15.18,39-30.52,58.12-46.23,11.79-9.68,23.57-19.53,34.92-29.78l-97.74-95.56a5.54,5.54,0,0,1-1.69-3.51l-.13-1.33a5.38,5.38,0,0,1,4.07-5.9l74.53-16.85a5.13,5.13,0,0,1,5,1.59q25.44,27.27,51,54.41c4.58,4.84,9.15,9.68,13.78,14.47C305.29,302.3,306,303.09,306.78,303.89Z" transform="translate(7.37 -114.22)"/><path class="cls-19" d="M236.07,236.54q69,74,71.06,75.16,40.31-44.68,46-67.45l.66,0q68.88,3.75,69.48,9.65l.28,2.65q2.64,25.59-77.12,98.14l0,.45,81.3,86.77-52,21.76-73.93-71.46q-62.43,49.13-92.9,70.23l-42.77-25.92-.18-1.74q67.63-52.54,97.72-80.26L161.68,254.72l-.14-1.33Z" transform="translate(7.37 -114.22)"/><path class="cls-20" d="M234.88,240.83l-66.56,15.06,98,95.77a4,4,0,0,1,1.22,2.92,3.83,3.83,0,0,1-1.24,2.87c-12.81,11.79-26.22,23-39.65,34.07-18.11,14.87-36.49,29.4-55,43.78l37.11,22.5c12.31-8.61,24.4-17.62,36.39-26.68,18.28-13.82,36.38-27.91,54.4-42.08a3.65,3.65,0,0,1,4.85.29l72.15,69.74,44.66-18.68-77.37-82.57a3.87,3.87,0,0,1-1.07-2.36l0-.46a3.82,3.82,0,0,1,1.24-3.31C355.75,341,367.38,330,378.53,318.5a343.12,343.12,0,0,0,24.17-27.17c5-6.36,10.13-13.51,13.68-20.89,1.84-3.82,3.92-9.16,3.46-13.57l-.14-1.36a31,31,0,0,0-4.65-1.39,133.82,133.82,0,0,0-13.34-2.18c-6.81-.84-13.66-1.46-20.49-2-8.41-.67-16.84-1.2-25.26-1.67-3,9.3-8.84,18.83-14.09,26.53-9.52,13.95-20.73,27.16-32,39.61a3.59,3.59,0,0,1-4.56.71,14,14,0,0,1-2.33-2c-1.26-1.23-2.49-2.5-3.71-3.77-4.58-4.72-9.1-9.5-13.62-14.27Q260.17,268.06,234.88,240.83Z" transform="translate(7.37 -114.22)"/></svg>