<svg id="Layer_1" data-name="Layer 1" xmlns="http://www.w3.org/2000/svg" viewBox="0 0 183.55 176.85"><defs><style>.cls-1{fill:#12100d;fill-rule:evenodd;}</style></defs><path class="cls-1" d="M196.38,536.05l4.32-4.66c2.43-2.6,9.11-7.93,13.78-3.73,3.72,3.34,4.26,8.62,5.85,14.37.25-.6.65-59.27.15-63.31-1.16-.31-49.87-.39-53.55-.06,3.82,1.24,9.9,1.89,10.95,8.66.84,5.4-2.3,11.64-6.22,17.24-.29,0-.62,0-1,0a16,16,0,0,0-5.5.79l-1.91.8a8.17,8.17,0,0,0-2.93,2l2.39-3.63c1.47-1.6,1-1.54.22-2.45l-3,1.68-.45.28a20.09,20.09,0,0,0-4.49,4.49,1.3,1.3,0,0,0-.1.15l-1,1.49,0,.08,0,.07,0,.08,0,.08L152,514.26c0,.08-.13.27-.13.28l-.08.53c-.51.64-.46-1.83-.48-2.11-.05-.67,0-2.76-1.42-2.21-.45.17-.34.05-.56.57s0,.22-.2.79-.61.89-.59,1.45a1.13,1.13,0,0,1-.11.72c-.21.64-.09.91-.35,1.55-.17.43,0,0-.18.37l-.24.62c-.09-.21-.17-.41-.25-.62-.16-.41,0,.06-.17-.37-.26-.64-.15-.91-.36-1.55a1.2,1.2,0,0,1-.11-.72c0-.56-.42-.92-.59-1.45s0-.36-.2-.79-.11-.4-.55-.57c-1.45-.55-1.38,1.54-1.43,2.21,0,.28,0,2.75-.48,2.11,0-.18,0-.36-.07-.53a2.72,2.72,0,0,1-.13-.28l-1.74-3.74,0-.08,0-.08,0-.07,0-.08-1-1.49-.1-.15a20.12,20.12,0,0,0-4.5-4.49l-.44-.28-3.05-1.68c-.75.91-1.25.85.23,2.45l2.38,3.63a8,8,0,0,0-2.93-2l-1.91-.8a15.9,15.9,0,0,0-5.5-.79l-.73,0c-3.92-5.6-7.07-11.85-6.23-17.25,1.05-6.77,7.13-7.42,11-8.66-3.67-.33-52.38-.25-53.55.06-.49,4-.09,62.71.16,63.31,1.59-5.75,2.13-11,5.85-14.37,4.67-4.2,11.35,1.13,13.78,3.73,1.4,1.5,2.68,2.9,4.13,4.46l-.48,1.5a11.14,11.14,0,0,0-.47,1.74,27.43,27.43,0,0,0-.94,6.66,40.59,40.59,0,0,0,.16,7.34c.09,1,.19,2,.28,3,0,.65-.07.23.09.84q.64,3.94,1.3,7.89c.16,1.2.74,2.56.62,3.79,0,.48,0,1,0,1.46a14,14,0,0,0,.75,3.88s0,.08,0,.06,0,.05,0,.07l-.31,0-.09,0c-2.08-.32-5.09,0-7.15,0l-13.22,1.15-.09,0-4.2.61-.26.08a3.89,3.89,0,0,1-.54.09l-.77.1c-.51.09.07,0-.44.11l-9.58,1.86a10.46,10.46,0,0,1-2,.34h0s-1.19.74-1.19,1.2c.14.06,0,.12,0,.14l.1.17a1.53,1.53,0,0,0,1.41.68l7.68-.23a13.91,13.91,0,0,1-1.43.44c-.33.1-.32.09-.65.21l-.77.29c-.3.14,0,0-.26.13l-1.85.66a19.76,19.76,0,0,0-5.23,3l-.3.26-.06,0,0,.05-.12.1-.33.33c-.47.56-1,1-1.39,1.52a7.52,7.52,0,0,0-.84,1.33,12.15,12.15,0,0,0-.48,2.78,1.39,1.39,0,0,0,1.05.28c.54,0,.92-.42,1.4-.62l1.76-.77a43,43,0,0,1,5-2l1.35,0c-.24.22-.48.45-.75.68a17.67,17.67,0,0,0-2.26,2.67l-.66,1.06c-.19.33,0,0-.16.24a2.76,2.76,0,0,0-.26.4L62,594.52c-1.13,2.48.45,3,1.65,2.08l.64-.18a.59.59,0,0,0-.06.43s.12,1,.23,1.43a.77.77,0,0,1,0,.15,6.87,6.87,0,0,0,.67,1.41h0c.66,1.33,1.53-.19,1.53-.19h0a8.07,8.07,0,0,1,.95-1.85,8.43,8.43,0,0,1,1.25-1.95h0c.11-.13.41-.37.88-.77,1-.86.58-.45,1-1.13a1.79,1.79,0,0,1,.05.57h0a2.78,2.78,0,0,1-.1.55,30.5,30.5,0,0,0-.41,3.12v.28h0a7.12,7.12,0,0,0,.39,2.92.76.76,0,0,0,.72.46h.12c.29,0-.31,0,.27,0,1,0,1.25-.89,1.57-1.66l0-.08c.08-.21.16-.43.25-.64s.31-.6.42-.84l0-.08,0-.08a.26.26,0,0,1,0-.08l1-1.4s0-.06,0-.07a1.21,1.21,0,0,1,.18-.31c.23-.29.38-.33.64-.66.31.51-.1,1.41-.1,1.91,0,1.59-.07,3.19-.1,4.78,0,.64,0,1.27.07,1.9a21.27,21.27,0,0,0,.69,3.5l1.73,4.68,1.28,1.83a19.63,19.63,0,0,1-2.3,0c-7.3-.47-10-5-11.11-5.66-.36,1.57,3.49,6.59,4.8,8.07a64.7,64.7,0,0,0,11.78,10.08c2.17,1.45,7,4.69,9.54,6,6,3.12,8.67,4.82,15.93,8.08l11.43,5.1c.89.38,1.82.71,2.93,1.16s2,.74,3,1.14c2.29.88,3.82,1.53,6.13,2.36,1.95.69,11.93,4.41,12.91,4.38v-.51c-3.36-.74-12.16-6.13-14.52-7.92-5.23-4-7.95-8-7.69-11.93l.29.09.28.07,4.1.92.21,0,14.18,1.57,1.55.08h9.25l1.55-.08L168,636.06l.21,0,4.1-.92.28-.07.54-.16c.29,4-2.42,8-7.68,12-2.36,1.79-11.16,7.18-14.52,7.92v.51c1,0,11-3.69,12.91-4.38,2.3-.83,3.84-1.48,6.12-2.36,1-.4,1.88-.69,3-1.14s2.05-.78,2.94-1.16l11.43-5.1c7.26-3.26,9.9-5,15.93-8.08,2.54-1.33,7.37-4.57,9.54-6A64.62,64.62,0,0,0,224.52,617c1.32-1.48,5.17-6.5,4.81-8.07-1.06.69-3.81,5.19-11.11,5.66a19.71,19.71,0,0,1-2.55,0l1.28-1.81,1.72-4.68a21.27,21.27,0,0,0,.69-3.5l.07-1.9-.1-4.78c0-.5-.41-1.4-.09-1.91.25.33.4.37.64.66a1.1,1.1,0,0,1,.17.31l0,.07,1,1.4,0,.08,0,.08,0,.08c.1.24.28.56.41.84l.26.64a.26.26,0,0,0,0,.08c.32.77.59,1.61,1.57,1.66.59,0,0,0,.27,0h.12a.77.77,0,0,0,.73-.46,8.85,8.85,0,0,0,.37-3.54h0a22,22,0,0,0-.44-3h0a2.25,2.25,0,0,1,0-.95c.43.68,0,.27,1,1.13.28.24.5.42.65.56l0,0a1.58,1.58,0,0,1,.24.25,11.06,11.06,0,0,1,1.06,1.77c.6.45.73,1.34,1.1,2h0v0c0,.05.07.11.12.17h0c.27.36.9,1,1.4,0l.06-.14a4.08,4.08,0,0,0,.62-1.31.36.36,0,0,1,0-.11c.11-.46.23-1.37.23-1.37s.08-.27-.07-.49l.65.18c1.19.92,2.78.4,1.64-2.08l-.51-1.09a2.1,2.1,0,0,0-.26-.4c-.15-.22,0,.09-.15-.24l-.67-1.06a17.6,17.6,0,0,0-2.25-2.67c-.28-.23-.51-.46-.76-.68l1.35,0a42.33,42.33,0,0,1,5,2l1.77.77c.47.2.85.6,1.39.62,1.68.06,1.38-1.24,1-2.08l-.06-.13-.18-.36-.1-.21c-.37-.71-1.08-1.73-1.08-1.73-.42-.46-.85-.88-1.29-1.4l-.32-.33-.12-.1-.06-.05-.06,0-.3-.26a19.6,19.6,0,0,0-5.23-3l-1.85-.66c-.27-.11,0,0-.25-.13l-.78-.29c-.33-.12-.32-.11-.65-.21s-1-.26-1.43-.44l7.68.23a1.55,1.55,0,0,0,1.52-.85h0a.06.06,0,0,1,0-.1c-.08-.81-1.37-1.25-1.37-1.25h0a12.17,12.17,0,0,1-1.73-.32L222,576.24c-.52-.12.07,0-.44-.11l-.78-.1a4.19,4.19,0,0,1-.54-.09l-.25-.08-4.21-.61-.09,0-13.22-1.15c-2.06,0-5.06-.34-7.15,0l-.09,0-.3,0s0-.08,0-.07,0,0,0-.06a14.34,14.34,0,0,0,.75-3.88v-1.46c-.12-1.23.46-2.59.63-3.79l1.3-7.89c.15-.61.07-.19.08-.84l.28-3a41.56,41.56,0,0,0,.17-7.34,28,28,0,0,0-1-6.66,11.14,11.14,0,0,0-.47-1.74l-.41-1.3Zm-51.13-25.33s.05-.07.05-.05h0s0,.06-.05.05ZM93.09,574.08s.06-.07.06-.05h0s0,.07-.06.05Zm-9.12.6,0,0s0,.06,0,0Zm-4.92.61,0,0s0,.06,0,0Zm-12.66,6.19s.06-.07.06-.05h0s0,.07-.06.05Zm-8.44,5,.06-.05s0,.06-.06.05Zm5.6,5,.06,0s0,.06-.06,0Zm6.53-11.19,0,0s0-.06,0,0ZM150,510.72s0-.05,0-.05h0s.07,0,0,.05Zm52.16,63.36s0,0,0-.05h0s.07,0,0,.05Zm9.13.6s-.05,0-.05,0l.05,0Zm4.91.61s-.05,0-.05,0l.05,0Zm12.66,6.19s-.05,0-.05-.05.07,0,.05.05Zm8.44,5s-.05-.05-.05-.05l.05.05Zm-5.6,5s-.05,0-.05,0l.05,0Zm-6.53-11.19s0,0,0,0Z" transform="translate(-55.97 -478.45)"/></svg>